<?xml version="1.0" standalone="no"?>
<!DOCTYPE svg PUBLIC "-//W3C//DTD SVG 20010904//EN"
 "http://www.w3.org/TR/2001/REC-SVG-20010904/DTD/svg10.dtd">
<svg version="1.0" xmlns="http://www.w3.org/2000/svg"
 width="984.000000pt" height="984.000000pt" viewBox="0 0 984.000000 984.000000"
 preserveAspectRatio="xMidYMid meet">
<metadata>
Created by potrace 1.14, written by Peter Selinger 2001-2017
</metadata>
<g transform="translate(0.000000,984.000000) scale(0.100000,-0.100000)"
fill="#000000" stroke="none">
<path d="M5029 9706 c-2 -2 -60 -7 -129 -11 -69 -4 -143 -8 -165 -10 -77 -6
-170 -15 -205 -20 -19 -2 -57 -7 -85 -10 -27 -3 -66 -8 -85 -10 -19 -3 -57 -7
-83 -10 -26 -2 -51 -6 -55 -9 -4 -2 -35 -8 -67 -11 -33 -4 -69 -9 -80 -12 -32
-6 -127 -24 -160 -28 -27 -4 -137 -27 -335 -70 -90 -19 -282 -68 -400 -101
-113 -33 -281 -84 -300 -91 -8 -4 -17 -7 -20 -7 -25 -5 -156 -53 -161 -59 -3
-5 -10 -8 -15 -8 -5 1 -31 -7 -59 -16 -27 -10 -52 -18 -55 -18 -9 -3 -64 -25
-85 -35 -11 -5 -49 -21 -85 -36 -36 -14 -90 -38 -120 -52 -30 -15 -57 -27 -60
-27 -14 -1 -208 -100 -224 -114 -10 -9 -20 -15 -22 -13 -6 5 -138 -70 -142
-80 -2 -4 -10 -8 -17 -8 -8 0 -20 -6 -27 -13 -7 -8 -25 -20 -40 -28 -42 -22
-139 -90 -189 -131 -25 -20 -49 -35 -53 -31 -3 3 -6 2 -6 -4 0 -6 -35 -39 -77
-74 -88 -73 -304 -286 -378 -373 -27 -33 -58 -68 -67 -78 -10 -10 -18 -22 -18
-27 0 -5 -3 -11 -7 -13 -9 -3 -46 -49 -78 -94 -11 -15 -35 -47 -52 -71 -18
-24 -33 -48 -33 -53 0 -6 -4 -10 -10 -10 -5 0 -10 -6 -10 -13 0 -7 -11 -24
-25 -39 -14 -15 -25 -30 -25 -33 0 -3 -15 -29 -33 -58 -18 -29 -36 -59 -40
-67 -4 -8 -23 -42 -43 -75 -44 -77 -127 -245 -212 -435 -8 -19 -15 -41 -15
-47 0 -7 -5 -13 -10 -13 -6 0 -8 -3 -4 -6 3 -4 0 -18 -7 -33 -21 -40 -116
-321 -118 -348 -1 -12 -5 -23 -9 -23 -3 0 -6 -6 -7 -12 0 -7 -10 -47 -22 -88
-27 -98 -24 -85 -59 -240 -27 -121 -36 -171 -46 -235 -2 -11 -4 -20 -5 -20 -1
0 -3 -16 -5 -35 -2 -19 -4 -35 -5 -35 -4 0 -10 -42 -12 -82 -2 -24 -5 -43 -8
-43 -5 0 -11 -63 -14 -142 0 -21 -3 -38 -6 -38 -3 0 -6 -12 -6 -27 -1 -16 -4
-62 -7 -103 -29 -313 -30 -1006 -3 -1225 2 -16 7 -61 11 -99 3 -38 8 -72 10
-75 1 -3 6 -32 9 -63 3 -31 8 -63 11 -70 3 -7 7 -31 10 -53 12 -89 18 -115 26
-115 5 0 6 -6 3 -14 -3 -8 0 -17 5 -21 6 -3 9 -10 6 -15 -7 -11 62 -198 80
-220 11 -13 18 -32 39 -105 2 -5 5 -14 6 -20 7 -27 73 -214 86 -242 7 -17 14
-34 14 -38 0 -18 55 -145 62 -145 5 0 7 -4 4 -8 -3 -5 6 -30 19 -55 13 -26 21
-47 19 -47 -3 0 6 -21 19 -48 13 -26 40 -78 58 -117 18 -38 38 -73 44 -77 5
-4 7 -8 3 -8 -4 0 6 -22 22 -49 17 -26 30 -53 30 -60 0 -6 5 -11 12 -11 6 0 8
-3 5 -6 -4 -4 2 -19 13 -34 11 -16 20 -33 20 -39 0 -6 4 -11 10 -11 5 0 12
-11 16 -25 3 -14 11 -29 18 -33 6 -4 22 -28 36 -54 13 -27 28 -48 32 -48 5 0
8 -5 8 -10 0 -6 5 -16 10 -23 6 -7 25 -34 42 -62 18 -27 35 -52 38 -55 3 -3
23 -31 44 -62 22 -32 43 -58 48 -58 5 0 6 -4 3 -10 -3 -5 -3 -10 2 -10 4 0 24
-23 43 -50 19 -27 38 -50 43 -50 4 0 7 -4 7 -10 0 -5 8 -18 17 -28 10 -10 38
-43 63 -72 25 -30 59 -69 76 -87 17 -18 30 -33 28 -33 -2 0 58 -63 133 -140
75 -76 140 -137 145 -134 4 3 8 1 8 -5 0 -6 17 -25 37 -43 20 -18 43 -41 52
-50 8 -10 21 -18 28 -18 7 0 13 -7 13 -15 0 -14 12 -19 33 -16 4 0 6 -3 5 -7
-2 -5 29 -34 67 -65 39 -31 77 -63 85 -69 8 -7 18 -12 22 -10 5 1 8 -2 8 -6 0
-5 21 -24 48 -42 26 -19 50 -39 54 -44 5 -7 8 -7 8 -1 0 6 4 5 8 -1 4 -7 45
-37 92 -68 47 -31 90 -61 97 -66 7 -6 17 -10 23 -10 5 0 10 -4 10 -10 0 -5 7
-10 15 -10 8 0 15 -4 15 -10 0 -5 4 -10 10 -10 5 0 25 -10 43 -22 53 -35 101
-61 116 -64 8 -1 17 -7 20 -12 8 -12 143 -82 158 -82 7 0 13 -4 13 -8 0 -4 16
-14 35 -21 19 -7 35 -17 35 -22 0 -5 6 -9 13 -9 8 0 27 -6 43 -14 16 -8 52
-24 79 -36 28 -12 66 -29 85 -38 19 -9 37 -17 40 -17 3 -1 14 -5 25 -10 11 -4
49 -19 85 -32 36 -14 85 -33 110 -43 25 -10 61 -21 80 -25 19 -4 40 -11 45
-15 10 -7 47 -18 95 -27 13 -2 27 -7 30 -11 3 -4 11 -8 18 -10 7 -1 20 -4 30
-6 9 -1 24 -6 32 -9 8 -4 26 -8 40 -10 14 -2 32 -7 40 -10 8 -3 29 -8 45 -11
17 -3 44 -9 60 -14 17 -5 40 -8 52 -7 12 1 20 -1 18 -5 -2 -3 31 -12 73 -20
42 -7 84 -14 92 -16 8 -2 33 -6 55 -9 22 -3 51 -8 65 -11 25 -5 45 -7 150 -19
30 -4 69 -8 85 -10 109 -14 284 -20 505 -18 317 3 310 2 332 14 12 7 18 6 18
-1 0 -6 4 -9 9 -5 5 3 40 7 78 10 37 2 68 4 68 5 0 3 40 9 85 14 25 3 56 7 70
10 40 7 134 19 148 19 6 0 12 3 12 7 0 4 11 5 25 2 14 -2 25 0 25 4 0 5 10 9
23 10 31 1 132 20 132 24 0 2 17 6 60 15 57 13 60 13 60 15 0 1 7 3 16 5 9 1
43 11 75 20 33 9 67 19 77 20 9 2 23 7 30 12 12 8 17 9 50 11 10 1 15 6 12 12
-3 5 0 7 9 4 8 -3 21 -2 28 2 7 5 18 9 23 10 29 5 171 59 176 66 3 6 8 9 10 7
6 -4 79 22 136 47 28 13 57 24 62 24 6 0 11 4 11 9 0 5 6 8 13 8 16 -2 190 83
199 97 4 6 8 8 8 4 0 -5 33 9 73 31 39 21 92 49 117 62 25 13 47 27 50 30 3 3
33 21 68 41 34 19 59 39 55 44 -5 5 -4 6 1 2 10 -8 66 21 66 35 0 4 4 6 8 3 5
-3 20 6 35 20 15 14 27 21 27 17 0 -4 7 1 15 11 8 11 15 16 15 10 0 -5 5 -2
10 6 5 8 13 15 17 15 11 0 75 45 94 67 9 10 21 18 26 18 9 0 42 23 72 50 14
13 62 51 119 95 7 5 29 25 48 43 20 17 38 32 41 32 3 0 21 16 39 36 19 19 34
32 34 29 0 -4 19 13 43 37 24 23 65 64 93 89 77 73 208 213 339 364 40 46 138
173 158 206 11 16 23 29 28 29 5 0 9 6 9 13 0 7 11 24 25 39 14 15 25 31 25
36 0 5 12 22 27 38 15 16 26 31 26 34 0 3 16 30 36 60 55 84 60 93 71 118 5
12 14 22 20 22 5 0 9 3 8 8 -3 12 24 62 34 62 4 0 8 9 8 20 0 11 4 20 8 20 8
0 50 80 48 91 0 4 6 15 14 25 29 36 52 85 46 100 -3 8 -1 12 4 9 10 -6 82 133
75 145 -3 4 2 13 10 20 8 7 15 17 15 23 0 5 14 39 31 75 17 36 31 73 32 84 1
10 5 18 10 18 5 0 7 9 4 20 -3 11 -1 18 4 14 5 -3 10 0 10 5 2 15 4 23 13 43
4 9 9 22 10 30 3 13 11 36 26 73 34 85 91 279 94 320 0 11 5 23 9 26 4 3 10
17 12 30 7 34 12 56 25 114 6 28 13 61 15 75 2 14 4 25 5 25 1 0 3 7 5 15 2 8
6 29 10 45 3 17 8 44 11 60 2 17 10 73 18 125 20 129 25 167 31 225 3 28 7 62
9 78 2 15 -2 27 -8 27 -8 0 -8 3 0 8 11 8 12 19 18 234 l4 147 37 33 c153 134
295 336 319 454 3 11 9 38 14 62 10 43 10 342 0 358 -3 5 -9 38 -13 74 -4 36
-9 68 -11 72 -2 3 -7 28 -10 54 -3 27 -7 51 -10 55 -2 4 -6 24 -10 44 -3 21
-8 47 -11 59 -3 11 -6 30 -8 41 -2 11 -4 20 -5 20 -1 0 -3 7 -5 16 -1 10 -11
50 -20 90 -9 41 -18 81 -20 89 -2 8 -15 64 -29 123 -15 59 -27 116 -29 125 -1
9 -6 23 -10 30 -5 6 -6 12 -4 12 3 0 -4 37 -14 83 -24 99 -27 112 -29 112 -1
0 -3 7 -5 15 -5 24 -45 130 -71 188 -13 29 -24 57 -24 62 0 6 -4 10 -10 10 -5
0 -10 6 -10 13 0 7 -26 60 -58 117 -79 142 -86 154 -92 160 -3 3 -31 46 -64
95 -75 115 -209 300 -251 349 -5 6 -23 29 -40 51 -16 22 -34 45 -40 50 -6 6
-31 35 -55 65 -24 30 -48 60 -54 65 -6 6 -38 42 -71 80 -78 92 -331 345 -420
420 -38 33 -71 63 -73 68 -2 4 -10 7 -17 7 -8 0 -18 6 -22 13 -9 13 -61 49
-66 45 -1 -2 -15 7 -31 20 -16 12 -34 22 -40 22 -6 0 -24 7 -40 15 -30 16 -84
30 -161 43 -51 8 -256 8 -315 -1 -45 -7 -63 -11 -130 -24 -19 -4 -38 -7 -42
-8 -3 0 -10 -3 -14 -7 -15 -16 -42 -7 -48 15 -8 32 -9 30 28 77 l34 44 -23 45
c-31 62 -105 160 -163 215 -79 76 -126 116 -139 116 -6 0 -13 4 -15 8 -7 19
-243 150 -280 156 -7 1 -23 8 -36 15 -32 17 -248 88 -297 96 -22 4 -47 11 -55
15 -8 4 -34 10 -58 14 -24 3 -47 8 -51 10 -4 3 -24 6 -44 8 -21 1 -37 5 -37 8
0 3 -10 6 -22 7 -23 1 -93 11 -93 13 0 1 -20 3 -45 6 -25 2 -58 6 -75 9 -16 2
-66 7 -110 10 -44 4 -91 9 -105 12 -28 6 -705 14 -711 9z"/>
</g>
</svg>
