<?xml version="1.0" encoding="UTF-8" standalone="no"?>
<!-- Created with Inkscape (http://www.inkscape.org/) -->
<svg
   xmlns:svg="http://www.w3.org/2000/svg"
   xmlns="http://www.w3.org/2000/svg"
   version="1.0"
   width="75"
   height="124"
   viewBox="-0.58 -0.044 75 124"
   id="svg2"
   xml:space="preserve">
<defs
   id="defs4">
</defs>
<path
   d="M 46.02,85.094 C 46.02,82.51 46.817,80.069 45.963,77.483 C 44.233,78.055 41.994,76.977 40.567,78.411 C 40.274,79.28 41.212,81.212 40.63,81.507 C 39.491,82.073 39.989,79.347 38.837,79.062 C 38.269,79.062 37.679,78.767 37.119,79.062 C 36.25,79.634 35.969,80.787 35.676,81.937 C 35.383,81.648 35.1,82.511 34.819,82.222 C 34.522,80.786 35.969,78.767 35.1,78.482 C 32.795,78.197 30.209,79.062 27.627,79.347 C 27.699,90.929 27.627,102.058 27.627,113.277 C 27.627,113.841 28.205,113.552 28.486,113.841 C 33.654,114.708 38.269,116.437 43.433,117.007 C 44.298,117.296 46.003,118.308 46.021,117.441 C 46.239,106.732 46.02,95.734 46.02,85.094 M 29.925,47.43 C 29.058,47.385 27.361,47.149 27.337,48.01 C 27.052,58.073 27.337,67.916 27.626,77.625 C 29.925,77.334 32.509,77.625 34.817,76.182 C 35.674,75.61 33.958,74.75 33.958,73.59 C 33.958,73.307 34.239,73.307 34.521,73.307 C 35.382,74.172 35.968,74.75 36.818,75.61 C 37.119,75.61 37.4,75.61 37.4,75.325 C 37.4,75.61 37.679,75.891 37.978,75.61 C 38.837,74.751 38.837,73.307 39.99,72.446 C 40.275,73.591 39.408,75.325 39.99,75.61 C 41.426,76.762 43.724,75.891 45.455,75.03 C 46.596,74.452 46.021,72.165 46.021,70.723 C 45.455,62.95 46.021,55.483 45.734,47.723 C 40.702,47.43 35.099,47.723 29.925,47.43 z M 32.224,19.537 C 28.722,24.111 27.626,30.183 31.074,35.07 C 32.795,37.367 34.818,38.804 36.539,40.822 C 36.539,37.367 36.25,34.209 37.4,30.756 C 39.407,24.723 44.011,20.412 46.595,14.668 C 47.749,11.504 48.324,7.762 46.314,4.596 C 45.734,3.731 45.734,4.885 45.455,4.885 C 45.455,7.18 43.725,8.918 41.996,10.348 C 38.547,13.219 35.099,15.807 32.224,19.537 z M 11.392,84.443 C 8.162,86.066 5.335,88.984 4.915,92.791 C 4.849,93.422 6.917,91.707 8.067,91.998 C 8.067,91.998 8.067,92.857 7.788,92.857 C 6.067,92.857 5.479,94.3 6.067,95.451 C 6.635,96.601 8.932,95.734 8.659,96.889 C 8.659,97.744 7.503,96.602 6.636,96.889 C 6.353,96.889 6.353,97.184 6.353,97.457 C 8.355,100.914 11.812,103.203 15.548,103.5 C 16.407,103.5 15.548,101.779 15.548,100.914 C 15.548,100.619 16.126,100.619 16.407,100.619 C 16.407,102.348 16.985,104.357 18.995,104.068 C 19.854,104.068 20.433,102.629 21.591,102.056 C 21.88,103.499 19.573,104.577 20.734,105.441 C 21.009,106.019 22.64,106.584 22.668,105.722 C 22.959,97.456 22.879,89.691 22.668,81.06 C 20.939,81.06 19.289,81.06 18.129,81.935 C 16.705,82.509 18.996,83.951 18.711,85.093 C 18.711,85.093 18.129,85.093 17.854,85.093 C 16.987,83.95 16.127,82.794 14.979,83.364 C 14.102,83.95 14.698,85.382 14.403,86.53 L 13.821,86.53 C 13.247,85.671 13.973,84.594 13.102,84.016 C 12.534,83.732 11.956,84.162 11.392,84.443 z M 53.213,73.885 C 53.791,73.885 54.645,73.885 54.645,73.307 C 54.645,72.164 53.213,71.301 53.502,70.147 C 54.645,70.723 54.932,71.868 55.801,72.737 C 55.801,72.737 56.082,72.446 56.082,72.165 C 57.816,73.026 58.094,71.302 58.389,69.862 C 58.389,69.282 58.963,69.569 59.241,69.569 C 58.671,70.434 59.241,71.868 58.671,72.737 C 60.687,73.307 62.126,71.868 63.853,71.868 C 64.714,71.587 65.292,71.011 66.152,70.723 C 67.588,69.569 69.017,68.137 68.732,66.694 C 68.459,65.839 67.005,66.993 66.152,66.993 C 66.152,65.55 67.884,65.839 68.459,64.97 C 68.732,64.107 68.162,63.534 67.588,63.249 C 67.006,62.95 66.152,63.249 65.574,63.249 C 65.871,61.81 68.459,62.95 67.885,61.524 C 67.006,58.649 63.854,57.202 60.979,56.069 C 59.243,55.483 59.821,58.073 59.547,59.221 L 58.67,59.221 C 58.389,58.073 59.393,56.633 57.947,56.35 C 56.515,56.069 56.379,57.782 54.931,57.782 C 55.228,56.634 56.081,55.778 56.081,54.919 C 56.081,54.048 54.858,54.55 54.003,54.55 C 53.14,54.825 52.915,55.913 52.634,56.491 C 52.351,58.792 53.919,60.366 52.351,62.675 C 51.896,63.347 53.068,64.546 52.773,65.402 C 52.209,68.568 50.05,71.011 51.203,74.173 C 51.493,74.75 52.352,73.885 53.213,73.885 z M 29.636,12.648 C 34.406,8.832 40.274,7.761 44.298,3.169 C 44.876,2.29 44.298,1.151 44.298,-0.001 C 48.038,2.29 50.597,5.874 51.775,10.063 C 54.588,19.981 45.734,26.446 39.99,33.631 C 37.978,36.221 37.76,40.024 38.838,43.123 C 43.147,42.252 47.477,42.832 51.776,43.123 C 55.803,43.406 56.381,48.584 55.231,52.035 C 54.934,52.316 56.085,52.316 56.663,52.89 C 57.237,52.035 57.237,50.886 57.237,49.734 C 58.673,50.302 56.95,52.035 58.096,52.316 C 58.672,52.316 58.965,53.189 59.547,53.189 C 60.688,53.189 61.26,51.75 62.408,51.75 C 62.127,52.605 61.556,53.467 60.978,54.045 C 64.136,55.775 67.298,57.779 70.177,60.66 C 70.749,61.521 71.314,59.512 72.478,59.219 C 72.478,59.512 72.478,60.084 72.478,60.364 C 72.187,60.948 71.628,61.233 71.314,61.807 C 71.314,62.672 71.898,63.532 71.898,64.391 C 72.187,65.26 73.908,64.391 74.212,65.547 C 72.478,65.836 70.749,66.117 70.177,68.424 C 69.017,73.305 63.482,73.738 59.546,75.242 C 59.163,75.4 59.819,77.623 59.819,78.763 C 59.546,78.763 58.964,78.478 58.964,78.478 C 58.671,77.048 57.818,75.888 56.38,76.47 C 55.505,76.47 55.505,77.911 55.23,78.763 C 54.933,79.343 54.361,79.058 54.361,78.763 C 54.646,77.911 54.97,76.404 54.361,76.179 C 53.568,75.888 51.172,75.847 51.205,76.759 C 51.494,86.681 50.627,94.866 51.205,104.066 C 51.205,104.355 50.916,105.218 51.494,105.218 C 52.064,104.933 52.064,103.497 52.353,104.066 C 52.917,104.652 52.636,105.798 52.064,106.662 C 55.802,107.521 59.546,105.799 62.705,104.652 C 63.853,104.066 61.838,102.627 61.838,101.478 C 62.127,101.478 62.408,101.478 62.408,101.195 C 62.986,102.054 63.853,103.498 64.715,103.498 C 66.735,103.777 67.006,101.478 66.735,99.758 C 67.006,99.758 67.665,99.694 67.665,99.694 C 68.235,100.837 67.589,102.055 68.163,103.202 C 69.018,102.056 71.177,102.845 70.606,104.29 C 70.317,104.577 68.733,104.356 68.733,104.935 C 68.46,106.083 70.178,107.523 69.313,108.744 C 68.459,108.166 68.163,106.365 67.299,106.365 C 65.293,106.084 65.871,108.383 65.871,109.826 C 65.871,110.109 65.574,110.39 65.293,110.109 C 64.715,108.953 65.047,106.588 64.426,106.732 C 60.551,107.587 56.518,108.607 52.637,109.25 C 52.008,109.352 53.143,111.252 53.143,112.416 C 53.143,112.691 52.354,112.416 52.065,112.416 C 51.495,111.838 52.065,111.252 51.495,110.689 C 50.628,114.707 51.776,118.734 51.206,122.759 C 50.917,123.331 50.054,123.048 49.472,123.048 C 40.855,120.749 32.797,118.734 23.885,117.005 C 23.602,116.726 22.737,116.726 22.737,116.146 C 22.462,113.275 23.245,110.539 22.532,108.166 C 22.344,107.543 20.661,107.523 19.505,107.523 C 19.151,107.523 19.218,109.826 18.935,110.689 C 18.935,110.689 18.068,110.689 17.777,110.689 C 18.355,109.25 18.132,107.224 16.412,107.523 C 15.848,107.523 15.603,109.084 15.119,109.677 C 14.875,109.98 14.605,109.534 14.105,109.534 C 14.406,108.382 15.859,106.503 15.119,106.157 C 10.101,103.778 7.371,101.985 4.205,97.958 C 3.916,97.388 1.746,98.608 0.603,98.321 C 1.746,96.887 2.9,96.014 2.324,94.005 C 1.746,92.857 -0.256,93.435 0.033,92.278 C 0.033,91.417 1.469,92.856 2.324,92.563 C 3.478,91.706 3.187,89.979 3.777,88.543 C 5.789,85.092 8.937,83.082 12.394,81.355 C 11.816,80.201 11.525,79.058 11.244,77.623 C 12.394,78.193 12.394,79.918 13.551,80.201 C 14.106,80.201 15.553,80.201 15.553,79.631 C 15.842,78.764 16.131,77.912 16.131,77.049 C 16.131,76.471 16.99,77.049 16.99,76.471 C 17.289,77.623 16.447,79.873 17.57,79.631 C 19.218,79.277 22.672,79.059 22.672,78.408 C 22.672,69.996 23.246,61.955 22.381,53.904 C 21.227,54.474 21.596,57.498 20.156,56.92 C 19.578,56.631 21.342,53.639 20.437,53.756 C 17.707,54.111 13.824,55.481 10.666,56.631 C 10.385,56.92 9.803,57.199 10.102,57.498 C 10.957,58.359 10.957,59.219 11.817,60.084 C 11.526,60.084 11.245,60.084 10.958,60.084 C 10.103,59.512 9.233,57.779 8.073,58.938 C 7.509,59.795 8.151,61.159 8.151,62.313 C 7.862,62.313 7.213,62.086 7.213,62.086 C 6.922,60.947 6.922,59.795 6.358,58.938 C 5.485,59.795 2.551,61.741 3.122,59.438 C 3.122,58.575 5.485,58.071 5.214,56.92 C 5.214,56.066 4.054,55.775 4.054,54.619 C 5.486,54.916 6.642,56.92 7.509,55.48 C 8.073,54.619 7.794,53.466 7.794,52.605 C 9.233,52.89 8.073,55.48 9.517,54.916 C 12.97,54.045 16.132,52.891 19.58,51.453 C 20.74,51.166 18.135,49.447 19.002,48.871 C 19.861,48.297 20.158,50.023 21.301,50.596 C 21.598,50.303 21.887,50.303 22.168,50.303 C 23.318,48.008 21.887,45.422 22.74,43.123 C 27.058,42.832 31.357,43.621 35.75,42.908 C 32.02,40.316 27.344,38.803 24.475,34.775 C 21.887,30.472 21.016,25.586 23.036,20.98 C 24.468,17.539 26.765,14.951 29.636,12.648 z "
   id="path6" />
</svg>